<svg xmlns="http://www.w3.org/2000/svg" width="124.667" height="114.317" viewBox="0 0 124.667 114.317">
  <g id="book" transform="translate(0 -21.253)">
    <path id="Path_1373" data-name="Path 1373" d="M118.176,122.587h-3.209a19.328,19.328,0,0,1,0-15.715h3.212a6.491,6.491,0,0,0,0-12.983H105.262A10.623,10.623,0,0,0,107.9,86.87V66.531A10.683,10.683,0,0,0,97.234,55.86H91.983a6.6,6.6,0,0,0-5.9-9.559H84.272a15.1,15.1,0,0,1,0-11.837h1.809a6.606,6.606,0,0,0,0-13.211h-61.6A19.117,19.117,0,0,0,10.954,53.9a19.461,19.461,0,0,0,2.293,1.96H11.833a6.491,6.491,0,0,0,0,12.983h3.212a19.327,19.327,0,0,1,0,15.715H11.833A6.487,6.487,0,0,0,6.5,94.738,10.688,10.688,0,0,0,0,104.56V124.9A10.679,10.679,0,0,0,10.663,135.57H118.176a6.491,6.491,0,0,0,0-12.983Zm0-25.046a2.839,2.839,0,0,1,0,5.678H85.218a1.826,1.826,0,1,0,0,3.652h25.829a23.689,23.689,0,0,0-1.315,6.032s-.729,3.615,1.319,9.684H13.511a.536.536,0,0,1-.528-.529V107.4a.536.536,0,0,1,.528-.528H31.6v6a2.586,2.586,0,0,0,1.3,2.766c.546.267,1.667.525,3.046-.736l.028-.026,5.1-4.869,5.1,4.869.028.026a3.112,3.112,0,0,0,2.094.956,2.174,2.174,0,0,0,.962-.224,2.579,2.579,0,0,0,1.291-2.768l0-5.993H76.226a1.826,1.826,0,1,0,0-3.652H50.565l0-5.678h67.608Zm-97.9-22.667a23.718,23.718,0,0,0-1.323-6.031H94.394a.536.536,0,0,1,.529.528V84.03a.536.536,0,0,1-.529.528H50.573l0-6.032H63.356a1.826,1.826,0,1,0,0-3.652H20.278ZM31.6,84.558H18.952a23.879,23.879,0,0,0,1.325-6.032H31.6Zm15.325-6.031-.013,31.989-4.567-4.356a1.826,1.826,0,0,0-2.521,0l-4.566,4.356-.007-31.989H46.923ZM8.995,40.379A15.5,15.5,0,0,1,24.475,24.906h61.6a2.953,2.953,0,0,1,0,5.906H52.414a1.826,1.826,0,1,0,0,3.652H80.379a18.579,18.579,0,0,0,0,11.837H24.475a5.919,5.919,0,1,1,0-11.837H43.423a1.826,1.826,0,1,0,0-3.652H24.475a9.571,9.571,0,0,0,0,19.142h61.6a2.953,2.953,0,0,1,0,5.906h-61.6A15.509,15.509,0,0,1,8.995,40.379Zm2.839,24.812a2.839,2.839,0,0,1,0-5.678h85.4a7.026,7.026,0,0,1,7.018,7.019V86.87a7.027,7.027,0,0,1-7.018,7.019H50.569l0-5.678H94.394a4.186,4.186,0,0,0,4.181-4.181V69.372a4.186,4.186,0,0,0-4.181-4.181H11.833Zm0,23.02H31.6v5.678H11.834a2.839,2.839,0,0,1,0-5.678Zm106.342,43.707H10.663A7.023,7.023,0,0,1,3.652,124.9V104.56a7.023,7.023,0,0,1,7.011-7.019H31.6v5.678H13.511A4.185,4.185,0,0,0,9.331,107.4v14.658a4.186,4.186,0,0,0,4.181,4.181H118.176a2.839,2.839,0,0,1,0,5.678Z" transform="translate(0 0)" fill="#fff"/>
  </g>
</svg>
