<svg xmlns="http://www.w3.org/2000/svg" width="124" height="117.155" viewBox="0 0 124 117.155">
  <g id="dress" transform="translate(0.003 -14.133)">
    <path id="Path_1350" data-name="Path 1350" d="M114.844,71.032a69.277,69.277,0,0,0-8.707-12.617V48.43l17.2-14.12a1.817,1.817,0,0,0,.06-2.756L110.382,19.892a1.817,1.817,0,1,0-2.425,2.705l11.434,10.249L106.138,43.729V36.3a1.816,1.816,0,0,0-3.633,0V57.588a121.956,121.956,0,0,1-39.066,0V36.3a1.816,1.816,0,0,0-3.633,0v7.429L46.551,32.846,60.691,20.17a9.334,9.334,0,0,1,7.352-2.334A89.679,89.679,0,0,0,71.675,29.7c3.085,7.852,6.684,12.546,10.7,13.952a1.815,1.815,0,0,0,1.2,0c4.012-1.405,7.611-6.1,10.7-13.952A89.691,89.691,0,0,0,97.9,17.853a9.34,9.34,0,0,1,4.79.681,1.816,1.816,0,0,0,1.43-3.34,13.023,13.023,0,0,0-13.861,2.337l-1.676,1.526a8.292,8.292,0,0,1-11.217,0l-1.676-1.526a12.957,12.957,0,0,0-17.422-.065L42.549,31.554a1.817,1.817,0,0,0,.06,2.756L59.8,48.43v9.984a66.587,66.587,0,0,0-7.513,10.494c-2.762-1.472-5.684-2.925-8.643-4.4-2.586-1.286-5.191-2.581-7.691-3.9A24.766,24.766,0,0,0,41.112,50.03c1.262-6.206-.584-11.749-5.066-15.209A14.173,14.173,0,0,0,21.485,33c-2.391,1.175-6.4,4.223-6.4,11.442,0,4.569,2.9,8.889,8.872,13.206a69.336,69.336,0,0,0,6.2,3.934A93.607,93.607,0,0,1,21.2,69.024C14.737,73.956,8.6,78.64,8.443,84.949a9.936,9.936,0,0,0-7.54,8.4,112.623,112.623,0,0,0,0,28.514,9.946,9.946,0,0,0,9.356,8.668c9.646.5,19.36.754,29.074.754s19.429-.252,29.075-.754a9.94,9.94,0,0,0,9.353-8.668q.543-4.243.759-8.514c1.478.044,2.968.068,4.451.068,23.713,0,39.185-5.548,39.832-5.785A1.817,1.817,0,0,0,124,105.929a73.341,73.341,0,0,0-9.152-34.9ZM74.918,21.742a11.909,11.909,0,0,0,16.109,0L92.7,20.217a9.312,9.312,0,0,1,1.076-.844,82.2,82.2,0,0,1-2.892,9c-3.028,7.7-5.887,10.592-7.916,11.6-2.029-1.005-4.888-3.893-7.915-11.6a82.251,82.251,0,0,1-2.892-9,9.516,9.516,0,0,1,1.078.847Zm-56.2,22.7c0-3.947,1.511-6.776,4.371-8.181a9.007,9.007,0,0,1,3.969-.873A11.241,11.241,0,0,1,33.827,37.7c1.965,1.517,5.062,5.042,3.726,11.609a21.681,21.681,0,0,1-4.861,9.54c-7.851-4.4-13.974-9.07-13.974-14.4ZM10.448,88.313c3.238-.168,6.477-.309,9.628-.418a1.816,1.816,0,0,0-.126-3.631c-2.569.089-5.2.2-7.835.328.468-4.421,5.527-8.284,11.292-12.681a90.063,90.063,0,0,0,10.072-8.5c2.784,1.483,5.69,2.929,8.552,4.352s5.754,2.861,8.493,4.323a76.7,76.7,0,0,0-5.034,11.88c-6.111-.068-12.211-.042-18.266.091A1.816,1.816,0,1,0,27.3,87.69c13.541-.3,27.307-.087,40.916.623a6.305,6.305,0,0,1,5.939,5.5q.383,2.99.6,6c-.147,2.01-.346,4.006-.6,5.937a6.305,6.305,0,0,1-5.942,5.495c-4.113.215-8.245.382-12.318.5a67.375,67.375,0,0,0-.175-7.691,6.954,6.954,0,0,0-6.509-6.381,162.672,162.672,0,0,0-17.715,0,6.954,6.954,0,0,0-6.509,6.381,67.406,67.406,0,0,0-.173,7.75c-4.784-.127-9.606-.314-14.369-.563a6.3,6.3,0,0,1-5.941-5.5c-.244-1.908-.443-3.9-.6-5.914q.216-3.016.6-6.018a6.309,6.309,0,0,1,5.941-5.5ZM53.721,73.849c5.885,3.367,10.639,6.89,12.237,10.72q-8.307-.4-16.654-.547A72.892,72.892,0,0,1,53.721,73.849ZM52.1,114.556a3.308,3.308,0,0,1-3.087,3.045h0a159.111,159.111,0,0,1-17.318,0,3.308,3.308,0,0,1-3.087-3.045,63.773,63.773,0,0,1,0-10.211A3.308,3.308,0,0,1,31.7,101.3c2.873-.157,5.766-.236,8.659-.236s5.786.079,8.659.236a3.308,3.308,0,0,1,3.087,3.045,63.772,63.772,0,0,1,0,10.211ZM68.219,126.9a557,557,0,0,1-57.77,0,6.314,6.314,0,0,1-5.942-5.5q-.6-4.706-.787-9.447a9.942,9.942,0,0,0,6.538,2.91c4.907.257,9.878.448,14.806.576a6.952,6.952,0,0,0,6.434,5.785c2.939.161,5.9.241,8.857.241s5.919-.08,8.857-.241a6.952,6.952,0,0,0,6.443-5.843c4.213-.124,8.491-.3,12.748-.518a9.944,9.944,0,0,0,6.541-2.912q-.189,4.737-.788,9.449a6.31,6.31,0,0,1-5.939,5.5ZM114.4,106.247a139.81,139.81,0,0,0-2.06-16.2,1.816,1.816,0,1,0-3.57.67,136.279,136.279,0,0,1,2.039,16.33c-1.4.287-2.985.584-4.74.874a140.668,140.668,0,0,0-2.326-21.653,1.816,1.816,0,1,0-3.57.67,137.111,137.111,0,0,1,2.279,21.529,143.835,143.835,0,0,1-19.483,1.324c-1.441,0-2.888-.023-4.324-.066a112.4,112.4,0,0,0-.885-16.369,9.931,9.931,0,0,0-7.888-8.48c-1.334-5.551-7.032-10.009-14.378-14.2A65.992,65.992,0,0,1,62.3,61.083,125.854,125.854,0,0,0,82.972,62.8a125.843,125.843,0,0,0,20.67-1.714,67.4,67.4,0,0,1,8.074,11.8,69.916,69.916,0,0,1,8.634,31.737c-1.181.373-3.207.969-5.948,1.624Z" fill="#fff"/>
    <path id="Path_1351" data-name="Path 1351" d="M145.363,384.873c-2.426-.114-4.879-.171-7.289-.171s-4.863.057-7.29.171a1.817,1.817,0,0,0-1.728,1.7,61.059,61.059,0,0,0,0,7.384,1.816,1.816,0,0,0,1.728,1.7c2.424.113,4.877.171,7.29.171s4.865-.057,7.289-.171a1.817,1.817,0,0,0,1.728-1.7,61.059,61.059,0,0,0,0-7.384A1.817,1.817,0,0,0,145.363,384.873ZM143.54,392.1c-3.651.131-7.284.131-10.934,0-.039-1.222-.039-2.449,0-3.671,3.653-.131,7.281-.131,10.934,0C143.579,389.656,143.579,390.883,143.54,392.1Z" transform="translate(-97.716 -280.819)" fill="#fff"/>
  </g>
</svg>
