<svg xmlns="http://www.w3.org/2000/svg" width="121" height="124.281" viewBox="0 0 121 124.281">
  <g id="groceries" transform="translate(-0.001)">
    <path id="Path_1340" data-name="Path 1340" d="M120.251,106.24,107.576,85.118l1.135-9.7h1.614a5.193,5.193,0,0,0,5.188-5.188V64.283a5.193,5.193,0,0,0-5.188-5.187h-7.117V52.292c0-.018,0-.037,0-.056a1.812,1.812,0,0,0-.4-1.132l0,0-6.286-7.9V36.566A3.973,3.973,0,0,0,92.558,32.6H85.239c-.046-.094-.094-.185-.141-.274-.9-1.7-3.387-3.868-7.388-6.455a2.893,2.893,0,0,1-1.324-2.443V18.6A2.367,2.367,0,0,0,77.7,16.48V6.351A6.358,6.358,0,0,0,71.352,0H64.436a6.358,6.358,0,0,0-6.351,6.351V16.48A2.365,2.365,0,0,0,59.4,18.6v4.824a2.9,2.9,0,0,1-1.326,2.444c-.661.427-1.4.923-2.155,1.458.006-.141.009-.283.009-.425a9.709,9.709,0,1,0-19.2,2.045c.218,1.034.422,1.995.612,2.891A6.948,6.948,0,0,0,29.62,42.767a6.863,6.863,0,0,0,1.05,1.042l5.42,4.367A15.293,15.293,0,0,0,30.9,59.1H22.216l-.379-.713.17-.089c5.821-3.1,10.677-8.182,8.693-11.911s-8.914-2.546-14.735.551c-.057.029-.114.06-.17.091l-2.447-4.6.171-.089a24.2,24.2,0,0,0,7.05-5.431c2.712-3.227,2.193-5.444,1.642-6.48s-2.1-2.706-6.292-2.261a24.219,24.219,0,0,0-8.443,2.811l-.17.091L5.471,27.618a12.99,12.99,0,0,1-1.542-6.162A13.155,13.155,0,0,1,28.7,15.264l3.136,5.9a1.821,1.821,0,0,0,3.215-1.71l-3.137-5.9A16.795,16.795,0,1,0,2.256,29.327L18.091,59.1H10.677A5.193,5.193,0,0,0,5.49,64.283v5.942a5.193,5.193,0,0,0,5.188,5.188H12.29l1.136,9.7L.752,106.24a5.253,5.253,0,0,0,3.765,7.9,5.247,5.247,0,0,0,5.239-2.5l5.668-9.446.409,3.507a1.822,1.822,0,0,0,1.806,1.609,1.8,1.8,0,0,0,.213-.012,1.821,1.821,0,0,0,1.6-2.02l-.957-8.2,13-21.671H89.506l13,21.671-2.285,19.533a4.55,4.55,0,0,1-4.52,4.023H25.3a4.55,4.55,0,0,1-4.52-4.025l-.481-4.1a1.82,1.82,0,0,0-3.615.424l.48,4.1a8.192,8.192,0,0,0,8.137,7.244H95.7a8.19,8.19,0,0,0,8.136-7.243l1.736-14.842,5.669,9.447a5.25,5.25,0,1,0,9-5.4ZM17.674,50.149c5.864-3.12,9.541-2.561,9.811-2.056S26.16,51.961,20.3,55.079l-.17.09L17.5,50.239l.17-.09ZM9.185,34.189a20.839,20.839,0,0,1,7.118-2.4c1.81-.192,2.607.189,2.693.35s-.044,1.034-1.215,2.428a20.836,20.836,0,0,1-5.974,4.558l-.17.09L9.016,34.28l.169-.091Zm95.324,45.817-2.756-4.593h3.293ZM67.6,59.1V52.87l5.74-7.214H93.828l3.786,4.759H89.365a1.821,1.821,0,0,0,0,3.641h10.2V59.1Zm25.29-22.532v5.45H74.279v-5.45a.328.328,0,0,1,.327-.327H92.558a.328.328,0,0,1,.328.327ZM64.436,3.641h6.916a2.713,2.713,0,0,1,2.71,2.71V15.2H61.726V6.351a2.713,2.713,0,0,1,2.71-2.71ZM60.051,28.927a6.52,6.52,0,0,0,2.992-5.5v-4.58h9.7v4.58a6.52,6.52,0,0,0,2.99,5.5,35.262,35.262,0,0,1,4.913,3.67H74.606a3.972,3.972,0,0,0-3.968,3.968V43.2l-6.286,7.9a1.817,1.817,0,0,0-.4,1.133V59.1H61.537a15.3,15.3,0,0,0-5.184-10.92l2.2-1.77,3.219-2.593a6.985,6.985,0,0,0,1.047-1.037,6.949,6.949,0,0,0-6.085-11.306c-.107.011-.214.025-.32.04,1-.794,2.23-1.671,3.64-2.582Zm-6.325,9.425c.5-.709.957-3.015,3.373-3.261a3.308,3.308,0,0,1,2.391,5.883l-3.224,2.6-3.052,2.46q-.495-.255-1.011-.474Zm-7.5-17.519a6.075,6.075,0,0,1,5.931,7.36l-.707,3.345c0,.018-.009.036-.011.054L48.7,44.54a15.479,15.479,0,0,0-4.95,0l-.023-.106c-.632-3-1.31-6.209-3.433-16.248a6.064,6.064,0,0,1,5.93-7.352ZM32.449,40.473a3.308,3.308,0,1,1,5.514-3.585l.759,1.473c.684,3.236,1.071,5.067,1.44,6.823l.079.371q-.515.219-1.011.474c-6.63-5.371-6.406-5.093-6.78-5.556Zm13.772,7.509A11.7,11.7,0,0,1,57.892,59.1H34.55A11.7,11.7,0,0,1,46.221,47.982ZM15.956,75.413H19.25l-2.756,4.593ZM6.633,109.769a1.606,1.606,0,0,1-1.606.766h0a1.611,1.611,0,0,1-1.153-2.423l12.985-21.64a.009.009,0,0,0,0,0l7.13-11.882c.025-.039.049-.079.071-.119l3.971-6.617a1.61,1.61,0,0,1,2.76,1.656l-1.861,3.1c-.021.032-.04.064-.059.1Zm27.048-38,.236-.393a5.25,5.25,0,1,0-9-5.4l-3.479,5.8H10.677a1.548,1.548,0,0,1-1.546-1.546V64.283a1.548,1.548,0,0,1,1.546-1.546h99.648a1.548,1.548,0,0,1,1.546,1.546v5.942a1.548,1.548,0,0,1-1.546,1.546H99.568l-3.478-5.8a5.25,5.25,0,1,0-9,5.4l.235.393Zm82.294,38.763a1.7,1.7,0,0,1-1.606-.766L90.207,69.507a1.61,1.61,0,1,1,2.76-1.656l11.168,18.61.009.014,12.984,21.639a1.611,1.611,0,0,1-1.153,2.422Zm0,0" fill="#fff"/>
    <path id="Path_1341" data-name="Path 1341" d="M141.446,342.206v-6.024a4.862,4.862,0,1,0-9.724,0v6.024a4.862,4.862,0,1,0,9.724,0Zm-6.083,0v-6.024a1.221,1.221,0,0,1,2.443,0v6.024a1.221,1.221,0,1,1-2.443,0Zm0,0" transform="translate(-99.748 -250.897)" fill="#fff"/>
    <path id="Path_1342" data-name="Path 1342" d="M190.192,423.283V417.26a4.862,4.862,0,1,0-9.724,0v6.023a4.862,4.862,0,1,0,9.724,0Zm-6.083,0V417.26a1.221,1.221,0,1,1,2.442,0v6.023a1.221,1.221,0,1,1-2.442,0Zm0,0" transform="translate(-136.662 -312.294)" fill="#fff"/>
    <path id="Path_1343" data-name="Path 1343" d="M238.938,342.206v-6.024a4.862,4.862,0,1,0-9.724,0v6.024a4.862,4.862,0,1,0,9.724,0Zm-6.083,0v-6.024a1.221,1.221,0,1,1,2.442,0v6.024a1.221,1.221,0,1,1-2.442,0Zm0,0" transform="translate(-173.575 -250.897)" fill="#fff"/>
    <path id="Path_1344" data-name="Path 1344" d="M287.682,423.283V417.26a4.862,4.862,0,0,0-9.725,0v6.023a4.862,4.862,0,0,0,9.725,0Zm-6.083,0V417.26a1.221,1.221,0,1,1,2.442,0v6.023a1.221,1.221,0,1,1-2.442,0Zm0,0" transform="translate(-210.487 -312.294)" fill="#fff"/>
    <path id="Path_1345" data-name="Path 1345" d="M336.428,342.206v-6.024a4.862,4.862,0,0,0-9.725,0v6.024a4.862,4.862,0,1,0,9.725,0Zm-6.084,0v-6.024a1.221,1.221,0,0,1,2.443,0v6.024a1.221,1.221,0,1,1-2.443,0Zm0,0" transform="translate(-247.4 -250.897)" fill="#fff"/>
  </g>
</svg>
